# xmcd
#
# Track frame offsets: 
#        150
#        7757
#        20465
#        38933
#        56472
#        71237
#        91451
#        105796
#        109306
#        125898
#        142879
#        162528
#        179326
#        219356
#
# Disc length: 3156 seconds
#
# Revision: 2
# Processed by: cddbd v1.5.2PL0 Copyright (c) Steve Scherf et al.
# Submitted via: ExactAudioCopy v0.95b4
#
DISCID=bd0c520e
DTITLE=The September Equation - Trained Hearts Will Do The Job
DYEAR=2003
DGENRE=Glitch
TTITLE0=I See Shapes Coming From The Future
TTITLE1=Comportant
TTITLE2=Print Horizon
TTITLE3=When Rabbits Were First Made
TTITLE4=Do You Want To Go Now
TTITLE5=Small Square Windows
TTITLE6=Roaldamundsen
TTITLE7=Take A Second Look
TTITLE8=Plans For Tree # 7
TTITLE9=As At Sea
TTITLE10=Beutfl.3
TTITLE11=A Sailor At 19
TTITLE12=The Roads Know The Route
TTITLE13=Just Before The Beginning
EXTD=CD-R
EXTT0=
EXTT1=
EXTT2=
EXTT3=
EXTT4=
EXTT5=
EXTT6=
EXTT7=
EXTT8=
EXTT9=
EXTT10=
EXTT11=
EXTT12=
EXTT13=
PLAYORDER=
